<?xml version="1.0" encoding="utf-8"?>
<!-- Generator: Adobe Illustrator 16.0.0, SVG Export Plug-In . SVG Version: 6.00 Build 0)  -->
<!DOCTYPE svg PUBLIC "-//W3C//DTD SVG 1.1//EN" "http://www.w3.org/Graphics/SVG/1.1/DTD/svg11.dtd">
<svg version="1.1" id="Layer_1" xmlns="http://www.w3.org/2000/svg" xmlns:xlink="http://www.w3.org/1999/xlink" x="0px" y="0px"
	 width="428px" height="287.331px" viewBox="0 0 428 287.331" enable-background="new 0 0 428 287.331" xml:space="preserve">
<rect fill="#FFFFFF" stroke="#BCBEC0" stroke-miterlimit="10" width="428" height="143.666"/>
<rect y="143.666" fill="#E6E7E8" stroke="#BCBEC0" stroke-miterlimit="10" width="428" height="143.666"/>
<rect x="166.667" y="12.194" fill="none" width="100.333" height="91.609"/>
<text transform="matrix(1 0 0 1 172.7275 121.9985)"><tspan x="0" y="0" fill="#FFFFFF" font-family="'MyriadPro-Regular'" font-size="10">dapibus at arcu non, </tspan><tspan x="-3.005" y="12" fill="#FFFFFF" font-family="'MyriadPro-Regular'" font-size="10">rutrum condimentum </tspan></text>
<text transform="matrix(1 0 0 1 27.3335 64.833)"><tspan x="0" y="0" fill="#A7A9AC" font-family="'MyriadPro-Regular'" font-size="10">Praesent ut nunc nec urna finibus facilisis. Ut mattis nibh in rutrum blandit. Curabitur </tspan><tspan x="0" y="12" fill="#A7A9AC" font-family="'MyriadPro-Regular'" font-size="10">molestie mi ut est suscipit maximus. Pellentesque sed ipsum placerat, pulvinar nulla </tspan><tspan x="0" y="24" fill="#A7A9AC" font-family="'MyriadPro-Regular'" font-size="10">volutpat, tincidunt arcu. Donec </tspan></text>
<text transform="matrix(1 0 0 1 27.3335 47.332)" fill="#808285" font-family="'MyriadPro-Regular'" font-size="14">Praesent ut nunc nec urna finibus facilisis. </text>
<path fill="#595959" d="M356.27,218.203c6.229,2.782,16.008,3.275,16.008,3.275c0.219,0.005,0.434,0.006,0.647,0.007v0.001
	c0.01,0,0.02,0,0.028,0c0.011,0,0.021,0,0.029,0v-0.001c0.215-0.001,0.43-0.002,0.647-0.007c0,0,9.779-0.493,16.009-3.276
	c0,0,0.89-0.208,0.918-2.25c0,0-0.32-8.944-3.028-12.966c0,0-0.679-1.042-2.602-1.759c0,0-6.271-1.912-6.693-3.535
	c0,0-2.078,5.379-5.279,5.319c-3.201,0.061-5.278-5.319-5.278-5.319c-0.423,1.623-6.694,3.535-6.694,3.535
	c-1.909,0.688-2.602,1.759-2.602,1.759c-2.709,4.021-3.029,12.966-3.029,12.966C355.38,217.994,356.27,218.203,356.27,218.203
	L356.27,218.203z M356.27,218.203"/>
<path fill="#595959" d="M366.048,191.31c0.46,3.869,3.785,7.876,6.801,7.876c3.468,0,6.759-4.221,7.275-7.876
	c0.19-0.135,0.519-0.473,0.628-1.235c0,0,0.734-2.644-0.248-2.361c0.352-1.016,1.481-4.994-0.708-7.464c0,0-1.021-1.409-3.526-2.157
	c-0.101-0.068-0.18-0.143-0.285-0.215c0,0,0.058,0.068,0.123,0.175c-0.132-0.034-0.28-0.067-0.427-0.103
	c-0.138-0.149-0.299-0.296-0.465-0.451c0,0,0.156,0.155,0.331,0.423c-0.075-0.02-0.127-0.044-0.193-0.05
	c-0.11-0.178-0.252-0.349-0.433-0.524c0,0,0.076,0.132,0.18,0.346c-0.475-0.337-1.395-1.119-1.395-1.989c0,0-0.586,0.268-0.913,0.76
	c-0.142-0.22-0.02-0.478-0.02-0.478c-0.266,0.149-0.957,0.708-1.176,1.464l-0.198-0.268c-0.403-0.462-1.114-0.107-1.114-0.107
	s-3.66,1.583-4.721,4.866c0,0-0.612,1.477,0.204,5.823c-1.165-0.549-0.37,2.309-0.37,2.309
	C365.523,190.842,365.838,191.179,366.048,191.31L366.048,191.31z M366.048,191.31"/>
<path fill="#595959" d="M398.117,163.3v-4.61h-7.367v4.61h-35.59v-4.61h-7.363v4.61h-15.382v109.007h81.079V163.3H398.117z
	 M336.646,268.091V167.518h11.152v5.896h7.364v-5.896h35.598v5.896h7.358v-5.896h11.155l0.002,100.573H336.646z M336.646,268.091"/>
<rect x="346.427" y="253.856" fill="#595959" width="42.937" height="4.273"/>
<rect x="346.42" y="228.833" fill="#595959" width="55.571" height="4.252"/>
<rect x="346.42" y="237.384" fill="#595959" width="51.364" height="4.277"/>
<rect x="346.42" y="245.691" fill="#595959" width="47.149" height="4.249"/>
<text transform="matrix(1 0 0 1 27.3335 187.4458)"><tspan x="0" y="0" fill="#58595B" font-family="'MyriadPro-Regular'" font-size="10">Praesent ut nunc nec urna finibus facilisis. Ut mattis nibh in rutrum </tspan><tspan x="0" y="12" fill="#58595B" font-family="'MyriadPro-Regular'" font-size="10">blandit. Curabitur </tspan><tspan x="0" y="24" fill="#58595B" font-family="'MyriadPro-Regular'" font-size="10">molestie mi ut est suscipit maximus. Pellentesque sed ipsum placerat, </tspan><tspan x="0" y="36" fill="#58595B" font-family="'MyriadPro-Regular'" font-size="10">pulvinar nulla </tspan><tspan x="0" y="48" fill="#58595B" font-family="'MyriadPro-Regular'" font-size="10">volutpat, tincidunt arcu. Donec </tspan></text>
</svg>
