<?xml version="1.0" encoding="utf-8"?>
<!-- Generator: Adobe Illustrator 16.0.0, SVG Export Plug-In . SVG Version: 6.00 Build 0)  -->
<!DOCTYPE svg PUBLIC "-//W3C//DTD SVG 1.1//EN" "http://www.w3.org/Graphics/SVG/1.1/DTD/svg11.dtd">
<svg version="1.1" id="Layer_1" xmlns="http://www.w3.org/2000/svg" xmlns:xlink="http://www.w3.org/1999/xlink" x="0px" y="0px"
	 width="428px" height="287.331px" viewBox="0 0 428 287.331" enable-background="new 0 0 428 287.331" xml:space="preserve">
<rect fill="#FFFFFF" stroke="#BCBEC0" stroke-miterlimit="10" width="428" height="287.331"/>
<rect x="0.001" y="1.13" fill="#E7E7E7" stroke="#BDBEC0" stroke-width="0.5" stroke-miterlimit="10" width="428" height="34.202"/>
<rect x="157.667" y="51.194" fill="none" width="100.333" height="91.609"/>
<text transform="matrix(1 0 0 1 511.9995 384)" font-family="'MyriadPro-Regular'" font-size="12">&lt;div class=&quot;center-img&quot;&gt;&lt;img  src=&quot;assets/img/grid.svg&quot;&gt;&lt;/div&gt;</text>
<text transform="matrix(1 0 0 1 511.9995 384)" font-family="'MyriadPro-Regular'" font-size="12">&lt;div class=&quot;center-img&quot;&gt;&lt;img  src=&quot;assets/img/grid.svg&quot;&gt;&lt;/div&gt;</text>
<path fill="#39B54A" stroke="#23763B" stroke-miterlimit="10" d="M128.254,267.199c0,2.098-1.702,3.8-3.8,3.8H24.134
	c-2.099,0-3.8-1.702-3.8-3.8v-24.067c0-2.098,1.702-3.8,3.8-3.8h100.321c2.098,0,3.8,1.702,3.8,3.8V267.199z"/>
<text transform="matrix(1 0 0 1 45.1597 259.7251)" fill="#FFFFFF" font-family="'MyriadPro-Regular'" font-size="13.68">Button X</text>
<rect x="20.333" y="136.332" fill="#FFFFFF" stroke="#9E9E9F" stroke-miterlimit="10" width="392.522" height="32"/>
<polygon fill="#ABABAB" stroke="#9E9E9F" stroke-miterlimit="10" points="400.333,148.332 393.333,155.803 386.333,148.332 "/>
<text transform="matrix(1 0 0 1 20.3335 62.332)" fill="#A7A9AC" font-family="'MyriadPro-Regular'" font-size="14">Praesent ut nunc nec </text>
<rect x="20.333" y="70.332" fill="#FFFFFF" stroke="#9E9E9F" stroke-width="0.5" stroke-miterlimit="10" width="392.522" height="32"/>
<text transform="matrix(1 0 0 1 20.3335 127.332)" fill="#A8AAAD" font-family="'MyriadPro-Regular'" font-size="14">Praesent ut nunc nec </text>
<circle fill="#FFFFFF" stroke="#A09F9F" stroke-miterlimit="10" cx="35.333" cy="210.332" r="9"/>
<circle fill="#FFFFFF" stroke="#A09F9F" stroke-miterlimit="10" cx="216.595" cy="210.332" r="9"/>
<text transform="matrix(1 0 0 1 55.3335 216.332)" fill="#A8AAAD" font-family="'MyriadPro-Regular'" font-size="14">Praesent ut nunc nec </text>
<text transform="matrix(1 0 0 1 240.3335 215.332)" fill="#A8AAAD" font-family="'MyriadPro-Regular'" font-size="14">Praesent ut nunc nec </text>
<text transform="matrix(1 0 0 1 19.3335 23.332)" fill="#58595B" font-family="'MyriadPro-Regular'" font-size="18">Praesent ut nunc nec </text>
</svg>
