<?xml version="1.0" encoding="utf-8"?>
<!-- Generator: Adobe Illustrator 16.0.0, SVG Export Plug-In . SVG Version: 6.00 Build 0)  -->
<!DOCTYPE svg PUBLIC "-//W3C//DTD SVG 1.1//EN" "http://www.w3.org/Graphics/SVG/1.1/DTD/svg11.dtd">
<svg version="1.1" id="Layer_1" xmlns="http://www.w3.org/2000/svg" xmlns:xlink="http://www.w3.org/1999/xlink" x="0px" y="0px"
	 width="428px" height="287.331px" viewBox="0 0 428 287.331" enable-background="new 0 0 428 287.331" xml:space="preserve">
<g>
	<rect fill="#FFFFFF" stroke="#BCBEC0" stroke-miterlimit="10" width="142.667" height="143.666"/>
	<rect x="142.667" y="143.666" fill="#FFFFFF" stroke="#BCBEC0" stroke-miterlimit="10" width="142.667" height="143.666"/>
	<rect x="142.667" fill="#1C75BC" stroke="#1C75BC" stroke-miterlimit="10" width="142.667" height="143.666"/>
	<rect y="143.666" fill="#1C75BC" stroke="#1C75BC" stroke-miterlimit="10" width="142.667" height="143.666"/>
	<rect x="285.334" y="143.666" fill="#1C75BC" stroke="#1C75BC" stroke-miterlimit="10" width="142.667" height="143.666"/>
	<rect x="285.334" fill="#E6E7E8" stroke="#BCBEC0" stroke-miterlimit="10" width="142.667" height="143.666"/>
	<text transform="matrix(1 0 0 1 20.334 51.9985)"><tspan x="0" y="0" fill="#777576" font-family="'MyriadPro-Regular'" font-size="10">Etiam sem ligula, </tspan><tspan x="0" y="12" fill="#777576" font-family="'MyriadPro-Regular'" font-size="10">dapibus at arcu non, </tspan><tspan x="0" y="24" fill="#777576" font-family="'MyriadPro-Regular'" font-size="10">rutrum condimentum </tspan><tspan x="0" y="36" fill="#777576" font-family="'MyriadPro-Regular'" font-size="10">nibh. Ut suscipit </tspan><tspan x="0" y="48" fill="#777576" font-family="'MyriadPro-Regular'" font-size="10">faucibus diam, in </tspan><tspan x="0" y="60" fill="#777576" font-family="'MyriadPro-Regular'" font-size="10">suscipit quam </tspan><tspan x="0" y="72" fill="#777576" font-family="'MyriadPro-Regular'" font-size="10">vulputate at.</tspan></text>
	<text transform="matrix(1 0 0 1 20.334 34.6655)" fill="#0B4F60" font-family="'MyriadPro-Regular'" font-size="12">Etiam sem ligula, </text>
	<rect x="166.667" y="12.194" fill="none" width="100.333" height="91.609"/>
	<path fill="#FFFFFF" d="M188.103,76.193c0,3.74-3.038,6.778-6.795,6.778c-3.742,0-6.78-3.038-6.78-6.778
		c0-3.74,3.038-6.777,6.78-6.777C185.065,69.416,188.103,72.453,188.103,76.193L188.103,76.193z M188.103,76.193"/>
	<path fill="#FFFFFF" d="M207.66,76.193c0,3.759,3.057,6.778,6.795,6.778c3.742,0,6.799-3.019,6.799-6.778
		c0-3.74-3.057-6.777-6.799-6.777C210.716,69.416,207.66,72.453,207.66,76.193L207.66,76.193z M207.66,76.193"/>
	<path fill="#FFFFFF" d="M240.827,75.339c0,3.74,3.057,6.778,6.797,6.778s6.797-3.038,6.797-6.778c0-3.759-3.057-6.797-6.797-6.797
		S240.827,71.58,240.827,75.339L240.827,75.339z M240.827,75.339"/>
	<path fill="#FFFFFF" d="M263.362,98.918v-7.271c-0.627-7.442-9.265-7.329-9.265-7.329h-13.612c-9.758,0.19-9.397,7.329-9.397,7.329
		v7.271h-0.892v-6.398c-0.628-7.442-9.266-7.347-9.266-7.347h-13.61c-9.76,0.189-9.419,7.347-9.419,7.347v6.398h-0.856v-6.398
		c-0.627-7.442-9.263-7.347-9.263-7.347H174.17c-9.742,0.189-9.395,7.347-9.395,7.347v6.398h-5.945v9.758h110.341v-9.758H263.362z
		 M263.362,98.918"/>
	<path fill="#FFFFFF" d="M212.52,27.971c-0.307-0.249-0.758-0.339-1.156-0.189c-0.398,0.13-0.666,0.477-0.666,0.854v15.378
		c0,0.38,0.268,0.719,0.666,0.876c0.398,0.13,0.85,0.052,1.156-0.209l8.923-7.689c0.417-0.366,0.417-0.952,0-1.312L212.52,27.971z
		 M212.52,27.971"/>
	<path fill="#FFFFFF" d="M263.343,12.194h-98.59v48.263h98.59V12.194z M214.455,50.789c-7.991,0-14.465-6.474-14.465-14.464
		c0-7.996,6.474-14.469,14.465-14.469c7.994,0,14.468,6.474,14.468,14.469C228.922,44.315,222.449,50.789,214.455,50.789
		L214.455,50.789z M214.455,50.789"/>
	<text transform="matrix(1 0 0 1 172.7275 121.9985)"><tspan x="0" y="0" fill="#FFFFFF" font-family="'MyriadPro-Regular'" font-size="10">dapibus at arcu non, </tspan><tspan x="-3.005" y="12" fill="#FFFFFF" font-family="'MyriadPro-Regular'" font-size="10">rutrum condimentum </tspan></text>
	<text transform="matrix(1 0 0 1 314.334 192.332)"><tspan x="0" y="0" fill="#FFFFFF" font-family="'MyriadPro-Regular'" font-size="10">Etiam sem ligula, </tspan><tspan x="0" y="12" fill="#FFFFFF" font-family="'MyriadPro-Regular'" font-size="10">dapibus at arcu non, </tspan><tspan x="0" y="24" fill="#FFFFFF" font-family="'MyriadPro-Regular'" font-size="10">rutrum condimentum </tspan><tspan x="0" y="36" fill="#FFFFFF" font-family="'MyriadPro-Regular'" font-size="10">nibh. Ut suscipit </tspan><tspan x="0" y="48" fill="#FFFFFF" font-family="'MyriadPro-Regular'" font-size="10">faucibus diam, in </tspan><tspan x="0" y="60" fill="#FFFFFF" font-family="'MyriadPro-Regular'" font-size="10">suscipit quam </tspan><tspan x="0" y="72" fill="#FFFFFF" font-family="'MyriadPro-Regular'" font-size="10">vulputate at.</tspan></text>
	<text transform="matrix(1 0 0 1 314.334 174.999)" fill="#FFF200" font-family="'MyriadPro-Regular'" font-size="12">Etiam sem ligula, </text>
</g>
</svg>
